<svg xmlns="http://www.w3.org/2000/svg" width="612" height="410.088" viewBox="0 0 612 410.088">
  <g id="Group_1" data-name="Group 1" transform="translate(0 -198.523)">
    <path id="Path_1" data-name="Path 1" d="M-294,36H318V446.087H-294V36Z" transform="translate(294 162.523)" fill="#fff" fill-rule="evenodd"/>
    <path id="Path_2" data-name="Path 2" d="M576.422,394.224q31.979,19.794,31.978,60.4,0,29.439-18.781,49.743Q569.316,526.7,534.8,526.7H281.516V265.3H530.232q34.515,0,54.819,22.333,18.273,20.3,18.273,49.743,0,36.546-26.9,56.85ZM530.232,365.8q13.2,0,13.2-19.8t-13.2-19.8H342.426V365.8Zm4.568,99.995q13.2,0,13.2-19.8t-13.2-19.8H342.426v39.592Z" fill="#1a1a1a"/>
    <path id="Path_3" data-name="Path 3" d="M173.133,416.049,67.555,265.3H3.6V526.7h60.91V367.321L173.133,522.135,281.516,367.663V265.3h-2.3L173.133,416.049Z" fill="#00669e" fill-rule="evenodd"/>
  </g>
</svg>
